<svg height="28" xmlns="http://www.w3.org/2000/svg" viewBox="0 0 36 28" class="c-icon c-icon-custom-size logo-brand-mini c-sidebar-brand-minimized" role="img">
  <title>moralis main logo mini</title>
  <svg width="36" height="28" viewBox="0 0 36 28" fill="none" xmlns="http://www.w3.org/2000/svg">
<path fill-rule="evenodd" clip-rule="evenodd" d="M0.0010001 11.0481C0.14003 5.25946 4.81407 0.611328 10.553 0.611328C16.3007 0.611328 20.966 5.26153 21.105 11.0481C21.1504 12.9376 19.6762 14.5067 17.8123 14.5527C15.9484 14.5987 14.4006 13.1042 14.3552 11.2147C14.3052 9.13005 12.6238 7.45589 10.553 7.45589C8.49943 7.45589 6.82127 9.11183 6.75185 11.1768C6.76307 13.9455 7.79901 16.6694 8.97591 18.8346C9.55395 19.8981 10.1327 20.7657 10.5617 21.3606C10.7752 21.6567 10.949 21.8815 11.0633 22.0251C11.1203 22.0969 11.1623 22.1481 11.1867 22.1775C11.1989 22.1922 11.2067 22.2015 11.2098 22.2051L11.2086 22.2037L11.207 22.2019C11.2082 22.2033 11.2094 22.2046 11.2106 22.206C12.4309 23.6293 12.2855 25.7862 10.8839 27.0279C9.48001 28.2716 7.34735 28.1261 6.12049 26.7029L8.6625 24.4509C6.12049 26.7029 6.11984 26.7021 6.11917 26.7013L6.11447 26.6959L6.1065 26.6866C6.10055 26.6796 6.09332 26.6711 6.08485 26.6611C6.06792 26.6411 6.04603 26.615 6.01952 26.5831C5.96651 26.5192 5.89492 26.4316 5.80743 26.3216C5.6326 26.1018 5.39332 25.7913 5.11123 25.4002C4.54899 24.6206 3.80609 23.5059 3.06247 22.1378C1.60248 19.4518 0 15.5339 0 11.1314V11.0898L0.0010001 11.0481ZM11.2063 22.2011L11.2068 22.2016L11.207 22.2019C11.2068 22.2016 11.2066 22.2013 11.2063 22.2011Z" fill="black"></path>
<path fill-rule="evenodd" clip-rule="evenodd" d="M21.2624 11.0505V11.5032C21.2624 13.3702 19.7509 14.8837 17.8865 14.8837C16.0221 14.8837 14.5106 13.3702 14.5106 11.5032V10.9618L14.5116 10.9207C14.6507 5.20269 19.3247 0.611328 25.0636 0.611328C30.8025 0.611328 35.4766 5.20269 35.6156 10.9207L35.6166 10.9618V11.0029C35.6166 14.591 34.4976 17.8089 33.4673 20.0353C32.9433 21.1678 32.4186 22.0942 32.0192 22.7461C31.8188 23.0732 31.6481 23.3341 31.5222 23.5205C31.4592 23.6138 31.4073 23.6887 31.3683 23.7441C31.3488 23.7718 31.3325 23.7947 31.3196 23.8126C31.3132 23.8216 31.3076 23.8293 31.303 23.8357L31.2966 23.8445L31.2927 23.8498C31.2922 23.8505 31.2916 23.8513 28.6803 21.9368L31.2916 23.8513C30.1902 25.3577 28.0778 25.6848 26.5735 24.5818C25.072 23.481 24.7438 21.3718 25.8376 19.866C25.8392 19.8637 25.8433 19.8579 25.8498 19.8488C25.8646 19.8278 25.8915 19.789 25.929 19.7336C26.004 19.6225 26.1202 19.4455 26.2642 19.2105C26.5535 18.7384 26.947 18.0447 27.3412 17.1928C28.1421 15.4622 28.8553 13.2722 28.8648 11.0477C28.7953 9.00796 27.1171 7.37229 25.0636 7.37229C23.0091 7.37229 21.3304 9.00948 21.2624 11.0505Z" fill="black"></path>
<path d="M28.581 25.6749C30.5238 25.6749 32.0987 24.0999 32.0987 22.1572C32.0987 20.2144 30.5238 18.6395 28.581 18.6395C26.6383 18.6395 25.0634 20.2144 25.0634 22.1572C25.0634 24.0999 26.6383 25.6749 28.581 25.6749Z" fill="#B7E803"></path>
</svg>

</svg>